 
http://www.imdb.com/title/tt1258197

IMDB Rating : 6.8

Another re upload of a old dead torrent. All credits to original up loader only.

Please reseed after download. 

My upload speed is only 512 kbps (adsl) so please keep patience.
I will seed the torrent 24x7 for some weeks. 

Exam.2009.1080p.BluRay.x264-AVCHD.mkv
Format : Matroska
Format version : Version 2
File size : 6.55 GiB
Duration : 1h 36mn
Overall bit rate : 9 684 Kbps
Encoded date : UTC 2010-06-06 06:29:16
Writing application : mkvmerge v3.2.0 ('Beginnings') built on Feb 12 2010 16:46:17
Writing library : libebml v0.7.9 + libmatroska v0.8.1

Video
ID : 1
Format : AVC
Format/Info : Advanced Video Codec
Format profile : High@L4.1
Format settings, CABAC : Yes
Format settings, ReFrames : 5 frames
Codec ID : V_MPEG4/ISO/AVC
Duration : 1h 36mn
Bit rate : 9 047 Kbps
Width : 1 920 pixels
Height : 816 pixels
Display aspect ratio : 2.35:1
Frame rate : 25.000 fps
Color space : YUV
Chroma subsampling : 4:2:0
Bit depth : 8 bits
Scan type : Progressive
Bits/(Pixel*Frame) : 0.231
Stream size : 5.99 GiB (91%)
Writing library : x264 core 98 r1629 2e81ce1

Language : English
Default : No
Forced : No

Audio
ID : 2
Format : AC-3
Format/Info : Audio Coding 3
Mode extension : CM (complete main)
Codec ID : A_AC3
Duration : 1h 36mn
Bit rate mode : Constant
Bit rate : 640 Kbps
Channel(s) : 6 channels
Channel positions : Front: L C R, Side: L R, LFE
Sampling rate : 48.0 KHz
Bit depth : 16 bits
Compression mode : Lossy
Stream size : 443 MiB (7%)
Default : Yes
Forced : No

Text
ID : 3
Format : UTF-8
Codec ID : S_TEXT/UTF8
Codec ID/Info : UTF-8 Plain Text
Default : Yes
Forced : No